<svg width="11" height="13" viewBox="0 0 11 13" fill="none" xmlns="http://www.w3.org/2000/svg">
<path d="M9.18756 5.96188H1.41547V2.72351H9.18756M8.21605 9.84793C7.95839 9.84793 7.71128 9.74557 7.52909 9.56338C7.34689 9.38119 7.24454 9.13408 7.24454 8.87642C7.24454 8.61876 7.34689 8.37165 7.52909 8.18946C7.71128 8.00726 7.95839 7.90491 8.21605 7.90491C8.47371 7.90491 8.72082 8.00726 8.90301 8.18946C9.08521 8.37165 9.18756 8.61876 9.18756 8.87642C9.18756 9.13408 9.08521 9.38119 8.90301 9.56338C8.72082 9.74557 8.47371 9.84793 8.21605 9.84793ZM2.38698 9.84793C2.12932 9.84793 1.88221 9.74557 1.70002 9.56338C1.51782 9.38119 1.41547 9.13408 1.41547 8.87642C1.41547 8.61876 1.51782 8.37165 1.70002 8.18946C1.88221 8.00726 2.12932 7.90491 2.38698 7.90491C2.64464 7.90491 2.89175 8.00726 3.07394 8.18946C3.25613 8.37165 3.35849 8.61876 3.35849 8.87642C3.35849 9.13408 3.25613 9.38119 3.07394 9.56338C2.89175 9.74557 2.64464 9.84793 2.38698 9.84793ZM0.120117 9.20026C0.120117 9.77021 0.37271 10.2819 0.767792 10.6381V11.791C0.767792 11.9627 0.836029 12.1275 0.957491 12.2489C1.07895 12.3704 1.24369 12.4386 1.41547 12.4386H2.06314C2.23491 12.4386 2.39965 12.3704 2.52112 12.2489C2.64258 12.1275 2.71082 11.9627 2.71082 11.791V11.1433H7.89221V11.791C7.89221 11.9627 7.96045 12.1275 8.08191 12.2489C8.20337 12.3704 8.36811 12.4386 8.53989 12.4386H9.18756C9.35934 12.4386 9.52407 12.3704 9.64554 12.2489C9.767 12.1275 9.83524 11.9627 9.83524 11.791V10.6381C10.2303 10.2819 10.4829 9.77021 10.4829 9.20026V2.72351C10.4829 0.45665 8.16424 0.132812 5.30151 0.132812C2.43879 0.132812 0.120117 0.45665 0.120117 2.72351V9.20026Z" fill="#170A91"/>
</svg>
